<svg width="196" height="53" viewBox="0 0 196 53" fill="none" xmlns="http://www.w3.org/2000/svg">
<g clip-path="url(#clip0_6965_81230)">
<path fill-rule="evenodd" clip-rule="evenodd" d="M150.281 8.75977H144.997C145.053 8.92608 144.997 9.20328 144.941 9.59136L140.492 25.5579C140.381 25.8905 140.269 26.1677 140.103 26.3895H145.386C145.331 26.1677 145.386 25.8905 145.442 25.5579L149.891 9.59136C150.003 9.20328 150.17 8.92608 150.281 8.75977ZM143.662 8.75977C143.495 8.92608 143.384 9.20328 143.273 9.59136L138.823 25.5579C138.768 25.8905 138.712 26.1677 138.768 26.3895H133.484C133.651 26.1677 133.762 25.946 133.873 25.5579L138.323 9.59136C138.434 9.25872 138.434 8.98152 138.378 8.75977H143.662ZM127.477 17.5746C127.811 16.4658 128.089 15.6897 128.423 15.1907C128.756 14.6918 129.09 14.47 129.479 14.47C130.036 14.47 130.258 14.9135 130.091 15.8006C130.036 16.1886 129.924 16.7985 129.758 17.5192H127.477V17.5746ZM132.205 25.3916L132.538 22.6196C131.76 23.2294 131.037 23.6729 130.425 23.9501C129.813 24.2273 129.146 24.3382 128.534 24.3382C127.922 24.3382 127.422 24.1719 127.088 23.8393C126.754 23.5066 126.532 23.0631 126.476 22.5087C126.42 21.8989 126.532 21.0119 126.865 19.8476H134.43C134.485 19.6259 134.541 19.515 134.541 19.4596C134.986 17.9073 135.153 16.6876 135.041 15.7451C134.986 14.8027 134.652 14.0265 134.04 13.3612C133.373 12.6405 132.149 12.2524 130.425 12.2524C128.367 12.2524 126.587 12.8623 125.141 14.0819C123.473 15.4679 122.36 17.2974 121.693 19.6259C120.859 22.5642 121.415 24.6154 123.306 25.7796C124.14 26.2786 125.308 26.5558 126.921 26.5558C127.922 26.5558 128.756 26.5004 129.479 26.334C130.202 26.1677 131.092 25.8351 132.205 25.3916ZM109.624 20.0139L113.239 13.5275C113.35 13.3612 113.406 13.1949 113.406 13.084C113.406 13.0286 113.461 12.8623 113.461 12.696H118.244C118.133 12.8068 118.078 12.9732 118.078 13.0286C118.022 13.1949 118.022 13.3058 118.022 13.4721L117.744 19.9585L121.304 13.4721C121.415 13.2504 121.47 13.1395 121.526 13.0286C121.526 12.9732 121.582 12.8068 121.526 12.6405H124.14C123.918 12.8623 123.751 13.084 123.528 13.4721L117.021 25.5024C116.91 25.7242 116.854 25.8351 116.798 25.946C116.798 26.0014 116.743 26.1677 116.798 26.334H112.182C112.293 26.1677 112.293 26.0568 112.349 25.946C112.405 25.8351 112.405 25.6688 112.405 25.5024L112.683 18.6834L108.901 25.5024C108.734 25.7796 108.678 26.0014 108.622 26.1677C108.622 26.2232 108.622 26.2786 108.567 26.334H104.229C104.284 26.2232 104.284 26.1677 104.284 26.1677C104.34 26.0014 104.34 25.7796 104.34 25.5024L104.507 13.5275C104.507 13.1949 104.451 12.9177 104.34 12.696H110.124C110.013 12.8623 109.957 12.9732 109.957 13.084C109.957 13.1949 109.902 13.3058 109.902 13.5275L109.624 20.0139ZM97.9437 15.1907C97.7212 15.1907 97.4987 15.2462 97.2763 15.4679C97.0538 15.6342 96.8869 15.856 96.7757 16.1332C96.6088 16.5213 96.2195 17.6855 95.6633 19.5704C95.1628 21.3999 94.9403 22.5642 94.8847 23.0077C94.8291 23.2849 94.8847 23.5066 94.9959 23.6729C95.1071 23.8393 95.274 23.9501 95.4965 23.9501C95.8858 23.9501 96.2751 23.6175 96.6088 23.0077C96.9426 22.3978 97.3319 21.2336 97.7768 19.6259C98.2218 17.9627 98.4999 16.7985 98.4999 16.1886C98.5555 15.5234 98.333 15.1907 97.9437 15.1907ZM94.1616 25.5579L93.1605 29.106C93.0493 29.4386 93.0493 29.7158 93.1049 29.9376H87.8211C87.988 29.7158 88.0992 29.4386 88.2104 29.106L92.5487 13.5275C92.6599 13.1949 92.6599 12.9177 92.6043 12.696H97.61L97.3319 13.6939C98.2218 12.7514 99.3342 12.2524 100.613 12.2524C101.448 12.2524 102.171 12.5296 102.671 13.0286C103.784 14.1374 103.951 16.2995 103.005 19.5704C102.393 21.788 101.503 23.5066 100.391 24.7263C99.8347 25.2807 99.2229 25.7242 98.4999 26.0568C97.7768 26.3895 97.0538 26.5558 96.3308 26.5558C95.274 26.5558 94.551 26.2232 94.1616 25.5579ZM82.8154 17.5746C83.1491 16.4658 83.4272 15.6897 83.761 15.1907C84.0947 14.6918 84.4284 14.47 84.8177 14.47C85.3739 14.47 85.5964 14.9135 85.4295 15.8006C85.3739 16.1886 85.2627 16.7985 85.0958 17.5192H82.8154V17.5746ZM87.543 25.3916L87.8767 22.6196C87.0981 23.2294 86.375 23.6729 85.7632 23.9501C85.1514 24.2273 84.484 24.3382 83.8722 24.3382C83.2604 24.3382 82.7598 24.1719 82.4261 23.8393C82.0368 23.5066 81.8699 23.0631 81.8143 22.5087C81.7587 21.8989 81.8699 21.0119 82.2036 19.8476H89.7678C89.8234 19.6259 89.879 19.515 89.879 19.4596C90.3239 17.9073 90.4908 16.6876 90.3796 15.7451C90.3239 14.8027 89.9902 14.0265 89.3784 13.3612C88.711 12.6405 87.4874 12.2524 85.7632 12.2524C83.7053 12.2524 81.9812 12.8623 80.4795 14.0819C78.8109 15.4679 77.6985 17.2974 77.0311 19.6259C76.1968 22.5642 76.753 24.6154 78.644 25.7796C79.4783 26.2786 80.6463 26.5558 82.2592 26.5558C83.2604 26.5558 84.0947 26.5004 84.8177 26.334C85.5407 26.1677 86.4306 25.8351 87.543 25.3916ZM69.467 17.5746H71.7473C71.9142 16.8539 72.0254 16.2441 72.081 15.856C72.2479 14.969 72.0254 14.5255 71.4692 14.5255C71.0799 14.5255 70.7462 14.7472 70.4125 15.2462C70.1344 15.6897 69.8007 16.4658 69.467 17.5746ZM74.1945 25.3916C73.0822 25.8351 72.1923 26.1677 71.4136 26.334C70.6906 26.5004 69.8007 26.5558 68.8552 26.5558C67.2978 26.5558 66.0742 26.2786 65.24 25.7796C63.3489 24.6154 62.7927 22.5642 63.627 19.6259C64.2944 17.2974 65.4068 15.4125 67.0754 14.0819C68.5214 12.8623 70.3012 12.2524 72.3591 12.2524C74.0833 12.2524 75.2513 12.6405 75.9187 13.3612C76.5305 13.9711 76.8642 14.8027 76.9199 15.7451C76.9755 16.6876 76.8086 17.9073 76.4193 19.4596C76.4193 19.515 76.3637 19.6259 76.3081 19.8476H68.7439C68.4658 21.0119 68.299 21.8989 68.3546 22.5087C68.4102 23.0631 68.5771 23.5066 68.9664 23.8393C69.3557 24.1719 69.8007 24.3382 70.4125 24.3382C71.0799 24.3382 71.6917 24.2273 72.3035 23.9501C72.9153 23.6729 73.6384 23.2294 74.417 22.6196L74.1945 25.3916ZM65.6293 8.75977H60.3455C60.4011 8.92608 60.3455 9.20328 60.2899 9.59136L55.8404 25.5579C55.7292 25.8905 55.6179 26.1677 55.4511 26.3895H60.7348C60.6792 26.1677 60.7348 25.8905 60.7905 25.5579L65.24 9.59136C65.3512 9.20328 65.4624 8.92608 65.6293 8.75977ZM43.3818 25.2807L45.106 22.0098C45.551 22.5087 45.8847 22.7859 46.1071 23.0077C46.8302 23.6729 47.6645 23.9501 48.61 23.9501C49.1662 23.9501 49.6667 23.7838 50.1117 23.5066C50.5566 23.2294 50.8903 22.7859 51.0016 22.287C51.1684 21.7326 51.0572 21.2891 50.6679 21.0119C50.501 20.901 49.8336 20.5683 48.7212 20.0139C47.4976 19.4041 46.719 18.7388 46.4409 17.9627C46.1628 17.1311 46.1071 16.2441 46.4409 15.1907C46.719 14.0819 47.2751 13.1395 48.1094 12.2524C49.6111 10.5893 51.669 9.70223 54.2831 9.70223C55.7848 9.70223 57.1753 10.0349 58.4545 10.7001L56.7303 13.8602C55.6179 12.7514 54.5612 12.1416 53.56 12.1416C53.1151 12.1416 52.7258 12.2524 52.3364 12.5296C52.0027 12.8068 51.7246 13.1395 51.6134 13.5275C51.5022 13.9711 51.5578 14.3037 51.7802 14.47C52.0027 14.6918 52.7814 15.0798 54.0606 15.6342C55.3955 16.2441 56.1741 16.9648 56.4522 17.8518C56.6747 18.5725 56.6191 19.4596 56.341 20.4575C56.0073 21.6771 55.4511 22.7859 54.6168 23.7838C53.0595 25.6133 50.946 26.5558 48.165 26.5558C47.2195 26.5558 46.3852 26.4449 45.6622 26.2786C44.9948 26.1123 44.2161 25.7796 43.3818 25.2807Z" fill="#0171B8"/>
<path fill-rule="evenodd" clip-rule="evenodd" d="M117.021 5.32206H118.523L118.968 3.8252L119.413 5.32206H120.915L119.691 6.20909L120.192 7.65051L118.968 6.76348L117.8 7.65051L118.245 6.20909L117.021 5.32206Z" fill="#0171B8"/>
<path fill-rule="evenodd" clip-rule="evenodd" d="M109.902 2.10669H112.016L112.628 0L113.295 2.10669H115.409L113.684 3.3818L114.352 5.48849L112.628 4.21339L110.959 5.48849L111.571 3.3818L109.902 2.10669Z" fill="#0171B8"/>
<path fill-rule="evenodd" clip-rule="evenodd" d="M104.451 7.65048H106.12L106.62 5.9873L107.176 7.65048H108.845L107.51 8.64839L108.011 10.3116L106.62 9.31366L105.285 10.3116L105.786 8.64839L104.451 7.65048Z" fill="#0171B8"/>
<path d="M21.6353 10.0341C22.0803 10.3667 22.5252 10.6993 22.9702 11.032C28.8101 8.26001 32.6478 4.71189 32.036 2.43888C31.313 -0.222208 23.9713 -0.776601 15.6842 1.44097C10.0667 2.99327 5.33909 4.98909 3.22559 7.42842C6.39585 3.93574 14.4049 4.98909 21.6353 10.0341Z" fill="#7095CD"/>
<path d="M30.8124 23.617C31.0348 24.3931 30.9792 25.1693 30.7011 25.89C32.3141 21.9538 29.1438 15.8 23.0258 11.0323C22.1915 11.4203 21.3572 11.8084 20.4673 12.141C12.5138 15.3565 3.39238 15.5228 2.22439 11.0877C2.00191 10.3115 2.05753 9.59083 2.33563 8.87012C0.778304 12.7509 3.83733 18.7938 9.7329 23.5061C10.4559 23.1735 11.2346 22.8408 12.0133 22.5082C20.1892 19.1818 29.5888 19.0155 30.8124 23.617Z" fill="#ED3726"/>
<path d="M11.3458 24.7255C10.7896 24.3374 10.2334 23.9494 9.73288 23.5059C3.55921 26.3887 -0.556563 30.1586 0.0552421 32.5425C0.778284 35.259 8.34242 35.8134 16.9077 33.5404C23.0813 31.8772 28.1983 29.6596 30.1449 26.9431C27.2527 30.9347 18.8543 29.9368 11.3458 24.7255Z" fill="#FBB615"/>
<path d="M2.22419 11.0879C3.39218 15.5231 12.5136 15.3567 20.4671 12.1413C21.357 11.8086 22.1913 11.4206 23.0256 11.0325C22.5806 10.6998 22.1357 10.3672 21.6907 10.0346C14.4047 4.98959 6.39559 3.93625 3.22533 7.42892C3.00285 7.70612 2.61352 8.31595 2.33543 8.87035C2.05733 9.59106 2.00172 10.3118 2.22419 11.0879Z" fill="#89509F"/>
<path d="M30.646 25.8906C30.9241 25.1698 30.9797 24.3937 30.7572 23.6175C29.5336 19.0715 20.1897 19.2378 12.0138 22.5088C11.2351 22.8414 10.4564 23.174 9.7334 23.5067C10.234 23.8947 10.7902 24.3383 11.3463 24.7263C18.8549 29.9376 27.2533 30.9355 30.0898 26.9439C30.0898 26.8885 30.4235 26.4449 30.646 25.8906Z" fill="#F48220"/>
<path fill-rule="evenodd" clip-rule="evenodd" d="M181.65 46.2364C182.317 45.9592 182.54 45.4603 182.54 44.7396C182.54 37.5879 182.54 30.4917 182.54 23.34C182.54 22.841 182.54 22.841 182.039 22.841C177.756 22.8965 173.529 22.8965 169.247 22.8965C168.412 22.8965 167.967 23.34 167.967 24.1716C167.967 31.2678 167.967 38.364 167.967 45.4603C167.967 45.5712 167.967 45.7375 167.967 45.8484C168.023 46.181 167.856 46.2919 167.523 46.2919C165.854 46.2919 164.185 46.2919 162.572 46.2919C160.459 46.2919 158.735 44.5732 158.735 42.4666C158.735 36.4237 158.735 30.4362 158.735 24.3933C158.735 24.2825 158.735 24.1716 158.735 24.0607C158.735 23.7835 158.624 23.7835 158.401 23.8944C157.789 24.2825 157.233 24.6151 156.621 25.0032C155.453 25.7239 154.174 25.4467 153.451 24.227C153.173 23.7281 152.839 23.2291 152.561 22.7302C151.838 21.5659 152.172 20.3463 153.34 19.6256C158.457 16.4101 163.629 13.25 168.746 10.0345C169.914 9.31384 171.082 8.59312 172.195 7.87241C173.14 7.26258 174.03 7.26258 174.975 7.87241C181.427 11.8086 187.879 15.6894 194.386 19.6256C194.664 19.7919 194.943 19.9027 195.165 20.1245C195.944 20.7898 196.166 21.8431 195.666 22.7856C195.332 23.4509 194.943 24.0607 194.498 24.726C193.886 25.6684 192.662 25.9456 191.605 25.3912C190.882 24.9477 190.159 24.5042 189.436 24.1161C189.325 24.0607 189.214 23.8944 189.047 24.0053C188.936 24.0607 188.991 24.227 188.991 24.3933C188.991 30.4362 188.991 36.4791 188.991 42.522C188.991 44.5178 187.656 46.1255 185.654 46.3473C184.987 46.4582 184.264 46.4027 183.541 46.4027C182.985 46.2364 182.317 46.2364 181.65 46.2364Z" fill="#0171B8"/>
<path fill-rule="evenodd" clip-rule="evenodd" d="M179.759 25.2803C178.813 25.7239 177.923 26.1674 177.033 26.5555C176.366 26.8881 175.699 27.2207 174.976 27.4979C174.364 27.7751 174.086 28.2186 174.141 28.8285C174.141 30.6025 174.141 32.432 174.141 34.2061C174.141 36.9781 174.141 39.6946 174.141 42.4665C174.141 43.409 174.364 43.6862 175.254 44.0188C177.2 44.7396 179.203 45.4048 181.149 46.181C181.038 46.181 180.927 46.181 180.816 46.181C177.423 46.181 174.03 46.181 170.693 46.181C170.304 46.181 170.192 46.0701 170.192 45.682C170.192 38.9739 170.192 32.3211 170.192 25.613C170.192 25.0586 170.192 25.0586 170.749 25.0586C173.641 25.0586 176.477 25.0586 179.369 25.0586C179.481 25.1695 179.592 25.1695 179.759 25.2803Z" fill="#0171B8"/>
<path d="M81.5675 38.7798C81.2694 38.3534 80.3879 37.9141 79.4156 37.9141C77.6008 37.9141 76.123 39.4905 76.123 41.39C76.123 42.7596 76.8878 43.5608 78.0026 43.5608C78.7156 43.5608 79.4416 43.2248 79.9601 42.6304C80.1286 43.1731 80.686 43.5608 81.412 43.5608C83.2009 43.5608 84.6657 41.9197 84.6657 39.8006C84.6657 37.2163 82.462 35.123 79.4545 35.123C76.0711 35.123 73.2451 37.8624 73.2451 41.2607C73.2451 44.4523 75.5396 46.6232 78.6378 46.6232C80.2193 46.6232 81.9175 46.0417 82.9416 45.1889L82.1898 43.9743C81.3342 44.6591 80.0768 45.1243 78.7804 45.1243C76.6674 45.1243 74.8396 43.7417 74.8396 41.2995C74.8396 38.7281 76.8878 36.6349 79.4675 36.6349C81.5675 36.6349 83.0842 38.0304 83.0842 39.9557C83.0842 41.0798 82.4879 42.3074 81.5805 42.3074C81.2305 42.3074 80.9583 42.1136 80.9583 41.6225C80.9583 41.3383 81.0231 40.8989 81.1916 40.2658L81.5675 38.7798ZM78.3526 42.2815C77.7693 42.2815 77.4841 41.8551 77.4841 41.1961C77.4841 40.0849 78.2749 39.077 79.3119 39.077C79.636 39.077 79.973 39.1933 80.2064 39.3484L79.8823 40.6276C79.623 41.6742 79.0138 42.2815 78.3526 42.2815Z" fill="#0171B8"/>
<path d="M91.0898 46.9926H93.7994V41.4973H99.4442V46.9926H102.154V33.6012H99.4442V39.1153H93.7994V33.6012H91.0898V46.9926Z" fill="#0171B8"/>
<path d="M111.018 47.1989C115.026 47.1989 117.698 44.4607 117.698 40.3157C117.698 36.1332 115.045 33.3574 111.056 33.3574C107.048 33.3574 104.376 36.152 104.376 40.3532C104.376 44.4794 107.029 47.1989 111.018 47.1989ZM111.056 44.8358C108.647 44.8358 107.123 43.2228 107.123 40.2969C107.123 37.3336 108.647 35.7206 111.056 35.7206C113.427 35.7206 114.951 37.3336 114.951 40.2969C114.951 43.2228 113.427 44.8358 111.056 44.8358Z" fill="#0171B8"/>
<path d="M132.564 33.5262C131.492 33.5262 131.247 33.8638 130.777 34.7641L126.976 42.0037L123.175 34.7641C122.686 33.8638 122.441 33.5262 121.369 33.5262C120.579 33.5262 119.92 33.8638 119.92 34.5578V46.9926H122.554V38.3464L125.753 44.4607H128.18L131.36 38.3464V46.9926H133.994V34.539C133.994 33.8451 133.355 33.5262 132.564 33.5262Z" fill="#0171B8"/>
<path d="M145.835 35.8707V33.6012H138.083C137.481 33.6012 136.935 34.0139 136.935 34.6891V46.9926H145.666V44.7045H139.645V41.3097H145.214V39.0403H139.645V35.8707H145.835Z" fill="#0171B8"/>
</g>
<defs>
<clipPath id="clip0_6965_81230">
<rect width="196" height="53" fill="white"/>
</clipPath>
</defs>
</svg>
